<?xml version="1.0" standalone="no"?><!DOCTYPE svg PUBLIC "-//W3C//DTD SVG 1.1//EN" "http://www.w3.org/Graphics/SVG/1.1/DTD/svg11.dtd"><svg t="1622620852853" class="icon" viewBox="0 0 1211 1024" version="1.1" xmlns="http://www.w3.org/2000/svg" p-id="5139" xmlns:xlink="http://www.w3.org/1999/xlink" width="236.5234375" height="200"><defs><style type="text/css"></style></defs><path d="M191.146667 423.253333l-32.426667-6.826666C199.68 233.813333 337.92 95.573333 520.533333 52.906667L529.066667 85.333333c-170.666667 40.96-298.666667 168.96-337.92 337.92zM653.653333 1015.466667c-35.84 0-73.386667-3.413333-109.226666-11.946667-61.44-13.653333-119.466667-40.96-172.373334-76.8l20.48-27.306667c47.786667 34.133333 102.4 58.026667 158.72 71.68 136.533333 30.72 276.48-1.706667 384-88.746666l22.186667 27.306666c-87.04 68.266667-194.56 105.813333-303.786667 105.813334z" fill="#BCC0C4" p-id="5140"></path><path d="M631.466667 529.066667m-366.933334 0a366.933333 366.933333 0 1 0 733.866667 0 366.933333 366.933333 0 1 0-733.866667 0Z" fill="#E9EAEB" p-id="5141"></path><path d="M996.693333 759.466667h104.106667v-119.466667c0-39.253333-141.653333-97.28-298.666667-102.4-66.56-63.146667-174.08-102.4-238.933333-102.4h-119.466667c-71.68 0-175.786667 51.2-249.173333 102.4H139.946667c-17.066667 44.373333-35.84 134.826667-27.306667 168.96s32.426667 52.906667 68.266667 52.906667h815.786666z" fill="#A3D4FF" p-id="5142"></path><path d="M180.906667 778.24c-42.666667 0-73.386667-23.893333-85.333334-66.56-10.24-39.253333 10.24-134.826667 27.306667-179.2l3.413333-10.24H187.733333c75.093333-51.2 180.906667-102.4 254.293334-102.4h119.466666c66.56 0 175.786667 37.546667 245.76 102.4 141.653333 5.12 308.906667 58.026667 308.906667 119.466667v136.533333H904.533333c-204.8-1.706667-694.613333 0-723.626666 0zM151.893333 554.666667c-15.36 46.08-29.013333 122.88-22.186666 148.48 6.826667 27.306667 23.893333 40.96 51.2 40.96 29.013333 0 518.826667 0 725.333333-1.706667h177.493333v-102.4c0-18.773333-114.346667-80.213333-281.6-85.333333h-6.826666l-5.12-5.12c-63.146667-59.733333-167.253333-97.28-226.986667-97.28h-119.466667c-68.266667 0-170.666667 51.2-238.933333 98.986666l-5.12 3.413334H151.893333z" fill="#2A5082" p-id="5143"></path><path d="M709.973333 588.8H373.76l-52.906667-56.32 23.893334-23.893333 44.373333 46.08h312.32l25.6-11.946667 13.653333 30.72z" fill="#2A5082" p-id="5144"></path><path d="M896 742.4m-85.333333 0a85.333333 85.333333 0 1 0 170.666666 0 85.333333 85.333333 0 1 0-170.666666 0Z" fill="#FFFFFF" p-id="5145"></path><path d="M896 844.8c-56.32 0-102.4-46.08-102.4-102.4s46.08-102.4 102.4-102.4 102.4 46.08 102.4 102.4-46.08 102.4-102.4 102.4z m0-170.666667c-37.546667 0-68.266667 30.72-68.266667 68.266667s30.72 68.266667 68.266667 68.266667 68.266667-30.72 68.266667-68.266667-30.72-68.266667-68.266667-68.266667z" fill="#2A5082" p-id="5146"></path><path d="M298.666667 742.4m-85.333334 0a85.333333 85.333333 0 1 0 170.666667 0 85.333333 85.333333 0 1 0-170.666667 0Z" fill="#FFFFFF" p-id="5147"></path><path d="M298.666667 844.8c-56.32 0-102.4-46.08-102.4-102.4s46.08-102.4 102.4-102.4 102.4 46.08 102.4 102.4-46.08 102.4-102.4 102.4z m0-170.666667c-37.546667 0-68.266667 30.72-68.266667 68.266667s30.72 68.266667 68.266667 68.266667 68.266667-30.72 68.266666-68.266667-30.72-68.266667-68.266666-68.266667zM776.533333 332.8h34.133334v119.466667h-34.133334zM849.92 105.813333l-56.32-56.32-56.32 56.32-23.893333-23.893333L793.6 1.706667l80.213333 80.213333zM878.933333 332.8h-34.133333v-136.533333h102.4v34.133333h-68.266667zM742.4 332.8h-34.133333v-102.4h-68.266667v-34.133333h102.4zM1010.346667 293.546667l-23.893334-23.893334 56.32-56.32-56.32-56.32 23.893334-23.893333 80.213333 80.213333zM576.853333 293.546667l-80.213333-80.213334 80.213333-80.213333 23.893334 23.893333-56.32 56.32 56.32 56.32z" fill="#2A5082" p-id="5148"></path><path d="M776.533333 42.666667h34.133334v256h-34.133334zM537.6 196.266667h68.266667v34.133333h-68.266667zM981.333333 196.266667h68.266667v34.133333h-68.266667zM708.266667 366.933333h34.133333v34.133334h-34.133333zM844.8 366.933333h34.133333v34.133334h-34.133333z" fill="#2A5082" p-id="5149"></path></svg>