<?xml version="1.0" standalone="no"?><!DOCTYPE svg PUBLIC "-//W3C//DTD SVG 1.1//EN" "http://www.w3.org/Graphics/SVG/1.1/DTD/svg11.dtd"><svg t="1622713952581" class="icon" viewBox="0 0 1024 1024" version="1.1" xmlns="http://www.w3.org/2000/svg" p-id="2540" xmlns:xlink="http://www.w3.org/1999/xlink" width="200" height="200"><defs><style type="text/css"></style></defs><path d="M512 85.333333C328.533333 85.333333 181.333333 234.666667 181.333333 416c0 249.6 302.933333 407.466667 315.733334 416 2.133333 0 2.133333 2.133333 4.266666 2.133333h2.133334c2.133333 0 6.4 2.133333 8.533333 2.133334 2.133333 0 6.4 0 8.533333-2.133334h2.133334c2.133333 0 2.133333-2.133333 4.266666-2.133333 12.8-6.4 315.733333-164.266667 315.733334-416C842.666667 234.666667 695.466667 85.333333 512 85.333333z m0 674.133334c-59.733333-34.133333-262.4-166.4-262.4-343.466667 0-145.066667 117.333333-262.4 262.4-262.4s262.4 117.333333 262.4 262.4c0 179.2-202.666667 309.333333-262.4 343.466667z" fill="#32C4FF" p-id="2541"></path><path d="M512 938.666667c-172.8 0-358.4-42.666667-358.4-138.666667 0-57.6 68.266667-102.4 198.4-125.866667 19.2-4.266667 36.266667 10.666667 40.533333 27.733334 4.266667 19.2-10.666667 36.266667-27.733333 40.533333-104.533333 19.2-138.666667 49.066667-140.8 57.6 2.133333 21.333333 104.533333 68.266667 288 68.266667s285.866667-49.066667 288-68.266667c0-8.533333-40.533333-40.533333-149.333333-57.6-19.2-2.133333-32-21.333333-29.866667-40.533333s21.333333-32 40.533333-29.866667c76.8 12.8 206.933333 46.933333 206.933334 125.866667C870.4 896 684.8 938.666667 512 938.666667z" fill="#FE6300" p-id="2542"></path><path d="M512 416m-46.933333 0a46.933333 46.933333 0 1 0 93.866666 0 46.933333 46.933333 0 1 0-93.866666 0Z" fill="#FE6300" p-id="2543"></path><path d="M622.933333 701.866667c-4.266667 19.2 8.533333 36.266667 27.733334 40.533333h6.4c21.333333-17.066667 42.666667-36.266667 61.866666-57.6-21.333333-4.266667-40.533333-8.533333-57.6-12.8-17.066667-2.133333-36.266667 10.666667-38.4 29.866667zM305.066667 684.8c19.2 21.333333 40.533333 40.533333 61.866666 57.6 19.2-4.266667 29.866667-21.333333 27.733334-40.533333-4.266667-19.2-21.333333-29.866667-40.533334-27.733334-19.2 4.266667-36.266667 6.4-49.066666 10.666667z" fill="#2F4E00" p-id="2544"></path></svg>